<svg id="svg" version="1.1" xmlns="http://www.w3.org/2000/svg" xmlns:xlink="http://www.w3.org/1999/xlink" width="400" height="400" viewBox="0, 0, 400,400"><g id="svgg"><path id="path0" d="M0.000 200.000 L 0.000 400.000 200.000 400.000 L 400.000 400.000 400.000 200.000 L 400.000 0.000 200.000 0.000 L 0.000 0.000 0.000 200.000 M205.961 90.721 C 217.289 95.937,226.215 110.773,233.247 136.078 C 234.791 141.633,234.446 141.456,240.356 139.713 C 276.891 128.938,297.487 133.354,297.451 151.953 C 297.427 163.942,286.090 181.365,268.223 196.875 C 266.614 198.271,265.211 199.609,265.104 199.847 C 264.998 200.085,268.984 204.392,273.962 209.417 C 291.925 227.550,299.171 240.262,297.676 251.016 C 295.635 265.689,282.161 269.942,254.603 264.610 C 249.875 263.695,240.859 261.303,237.132 259.975 C 234.781 259.137,234.779 259.140,232.630 267.170 C 217.207 324.803,182.449 325.024,166.946 267.588 C 165.988 264.038,165.111 260.825,164.998 260.449 C 164.699 259.460,163.928 259.570,157.319 261.543 C 122.942 271.807,102.913 267.090,102.411 248.611 C 102.097 237.027,108.043 226.852,125.459 209.173 L 134.316 200.183 126.419 192.181 C 109.263 174.797,102.585 163.587,102.569 152.148 C 102.542 133.500,121.704 129.184,158.706 139.505 C 161.883 140.391,164.571 141.028,164.678 140.921 C 164.786 140.813,165.491 138.373,166.246 135.499 C 175.003 102.135,191.167 83.911,205.961 90.721 M195.708 98.699 C 187.178 102.910,178.475 118.865,173.610 139.207 C 172.420 144.183,172.081 143.638,177.734 145.823 C 182.077 147.501,192.843 152.015,197.280 154.018 L 199.444 154.995 204.507 152.664 C 209.705 150.271,220.547 145.872,224.023 144.746 C 227.166 143.728,227.071 144.032,225.795 139.044 C 218.655 111.130,205.704 93.764,195.708 98.699 M120.121 142.412 C 111.564 144.111,108.975 148.268,111.132 156.852 C 113.205 165.104,128.949 185.491,139.144 193.124 L 140.593 194.209 146.175 189.752 C 149.246 187.301,153.463 184.039,155.547 182.503 C 159.865 179.320,159.466 180.263,160.133 171.680 C 160.367 168.672,161.008 163.223,161.558 159.570 C 162.108 155.918,162.653 152.110,162.770 151.107 L 162.984 149.285 159.135 148.052 C 154.094 146.438,150.408 145.569,142.578 144.150 C 129.159 141.718,125.172 141.410,120.121 142.412 M263.334 142.614 C 255.646 143.632,237.915 147.892,236.824 148.984 C 236.690 149.118,237.232 153.927,238.028 159.672 C 238.824 165.417,239.619 172.304,239.794 174.977 C 240.083 179.382,240.194 179.891,240.983 180.414 C 242.854 181.657,251.943 188.539,255.312 191.265 C 257.267 192.847,259.086 194.141,259.354 194.141 C 260.178 194.141,273.866 180.143,277.499 175.586 C 297.708 150.238,292.759 138.718,263.334 142.614 M170.547 153.012 C 170.161 154.881,168.427 167.628,168.145 170.665 C 167.820 174.174,167.306 174.274,174.687 169.391 C 177.760 167.358,182.530 164.417,185.288 162.856 C 191.197 159.512,191.819 160.419,180.389 155.717 C 170.106 151.488,170.821 151.684,170.547 153.012 M227.344 152.225 C 222.505 153.962,212.503 157.807,210.560 158.678 L 208.034 159.809 212.391 162.103 C 214.787 163.365,219.955 166.428,223.875 168.911 C 227.795 171.394,231.080 173.347,231.176 173.251 C 231.706 172.721,229.455 153.547,228.724 152.364 C 228.450 151.921,228.248 151.901,227.344 152.225 M195.838 166.272 C 184.924 172.019,167.883 183.267,167.527 184.961 C 167.099 186.991,167.159 213.359,167.595 214.927 C 168.147 216.917,182.694 226.524,195.807 233.560 L 199.622 235.607 203.425 233.562 C 210.116 229.962,228.377 218.759,231.168 216.541 L 232.227 215.700 232.337 200.683 C 232.404 191.699,232.297 185.269,232.071 184.676 C 231.402 182.914,201.634 164.453,199.463 164.453 C 199.370 164.453,197.739 165.272,195.838 166.272 M204.883 182.245 C 214.150 184.787,220.185 195.169,217.775 204.422 C 213.755 219.857,192.626 223.537,184.124 210.284 C 174.715 195.618,188.037 177.625,204.883 182.245 M152.629 195.132 C 149.464 197.612,146.875 199.774,146.875 199.938 C 146.875 200.255,155.938 207.519,157.834 208.722 L 158.959 209.436 158.969 200.030 C 158.975 194.857,158.845 190.625,158.681 190.625 C 158.517 190.625,155.793 192.653,152.629 195.132 M240.757 193.215 C 240.896 194.691,241.011 198.952,241.013 202.683 L 241.016 209.468 242.480 208.368 C 246.989 204.982,252.344 200.550,252.344 200.204 C 252.343 199.587,243.337 192.049,241.294 190.955 C 240.526 190.544,240.511 190.609,240.757 193.215 M135.646 210.059 C 111.228 233.517,103.596 252.195,116.387 257.190 C 122.760 259.678,141.070 258.091,156.113 253.746 C 163.152 251.712,163.032 251.775,162.726 250.285 C 161.531 244.471,159.393 226.755,159.381 222.568 L 159.375 220.331 153.027 215.569 C 149.536 212.950,145.324 209.694,143.666 208.334 C 139.950 205.283,140.810 205.098,135.646 210.059 M255.466 208.667 C 253.641 210.170,249.478 213.406,246.215 215.858 C 240.418 220.215,240.277 220.355,240.083 221.975 C 239.975 222.887,239.597 226.357,239.245 229.688 C 238.593 235.853,236.917 248.542,236.498 250.486 C 236.211 251.819,236.240 251.831,245.117 254.098 C 289.279 265.374,300.925 255.584,278.568 225.977 C 276.783 223.613,260.465 206.846,259.372 206.253 C 258.951 206.024,257.843 206.709,255.466 208.667 M168.179 228.223 C 169.394 238.578,170.486 246.298,170.946 247.787 C 171.114 248.331,171.404 248.444,172.151 248.257 C 173.139 248.009,187.475 241.831,189.624 240.728 L 190.772 240.138 189.624 239.547 C 186.995 238.192,178.740 233.242,173.736 230.019 C 167.464 225.978,167.933 226.130,168.179 228.223 M224.803 230.458 C 221.366 232.607,216.313 235.638,213.574 237.194 C 210.835 238.750,208.594 240.124,208.594 240.248 C 208.594 240.721,227.832 248.500,228.148 248.154 C 228.300 247.988,228.893 244.512,229.467 240.430 C 230.041 236.348,230.698 231.753,230.927 230.218 C 231.156 228.684,231.278 227.231,231.197 226.990 C 231.116 226.746,228.288 228.280,224.803 230.458 M197.089 246.355 C 194.340 247.784,186.417 251.212,179.004 254.180 C 175.513 255.578,172.656 256.924,172.656 257.173 C 172.656 257.762,175.164 266.939,176.354 270.703 C 183.548 293.463,194.751 305.804,204.060 301.222 C 212.469 297.082,224.085 274.876,226.382 258.548 L 226.636 256.744 223.767 255.560 C 222.189 254.909,219.404 253.761,217.578 253.009 C 215.752 252.258,211.121 250.219,207.286 248.478 C 199.457 244.923,199.732 244.980,197.089 246.355 " stroke="none" fill="#0e1734" fill-rule="evenodd"></path><path id="path1" d="M195.117 90.132 C 182.906 94.535,172.826 110.554,166.295 135.934 C 164.795 141.761,165.282 141.521,158.693 139.681 C 128.463 131.239,109.180 132.728,104.074 143.898 C 98.650 155.765,106.123 171.728,126.839 192.527 C 130.984 196.689,134.375 200.157,134.375 200.233 C 134.375 200.310,130.717 204.024,126.245 208.487 C 109.284 225.416,102.367 236.829,102.350 247.914 C 102.319 266.847,122.919 271.811,157.767 261.267 C 165.552 258.912,164.833 258.609,166.380 264.903 C 172.145 288.351,182.675 305.339,193.977 309.426 C 209.277 314.959,224.493 297.951,232.785 266.047 C 234.760 258.450,233.990 258.913,241.096 261.041 C 269.574 269.567,289.719 268.380,295.456 257.838 C 301.953 245.901,294.695 230.102,272.722 208.352 L 264.388 200.103 268.934 196.087 C 285.002 181.891,296.717 164.481,297.511 153.618 C 298.933 134.167,277.683 128.903,241.028 139.625 C 237.705 140.597,234.866 141.264,234.718 141.107 C 234.570 140.949,233.367 137.137,232.046 132.634 C 223.015 101.877,208.589 85.273,195.117 90.132 M203.405 98.641 C 211.494 102.267,220.931 119.203,226.013 139.215 C 227.187 143.836,227.176 143.877,224.540 144.738 C 220.631 146.014,211.918 149.502,205.623 152.311 L 199.332 155.118 197.029 154.081 C 192.014 151.823,181.211 147.292,177.051 145.701 C 171.801 143.694,172.005 144.364,174.191 136.315 C 178.836 119.214,183.990 108.836,191.279 101.904 C 196.001 97.414,198.917 96.629,203.405 98.641 M140.039 143.521 C 149.804 145.213,160.956 147.969,162.787 149.143 C 163.164 149.385,163.101 150.469,162.501 154.121 C 161.399 160.821,160.247 170.227,159.931 175.096 C 159.614 179.990,159.886 179.553,154.883 183.210 C 152.734 184.781,148.732 187.883,145.988 190.103 C 143.245 192.324,140.716 194.141,140.369 194.141 C 139.518 194.141,125.442 179.918,122.266 175.848 C 115.530 167.218,111.879 161.104,110.913 156.836 C 107.842 143.263,116.279 139.406,140.039 143.521 M280.167 142.367 C 294.875 145.484,293.074 157.494,274.657 179.102 C 271.206 183.151,262.050 192.401,260.165 193.744 L 259.087 194.511 253.700 190.197 C 250.737 187.825,246.602 184.662,244.511 183.170 C 239.627 179.683,240.007 180.403,239.484 173.633 C 239.111 168.803,237.515 156.427,236.482 150.339 C 236.242 148.927,236.250 148.917,238.140 148.302 C 254.196 143.082,271.806 140.595,280.167 142.367 M180.134 155.465 C 184.848 157.397,189.152 159.211,189.697 159.496 C 190.665 160.004,190.582 160.074,185.871 162.678 C 183.222 164.142,178.330 167.136,175.000 169.330 C 171.670 171.524,168.698 173.461,168.395 173.635 C 167.552 174.119,169.392 155.671,170.510 152.441 C 170.779 151.664,171.111 151.769,180.134 155.465 M229.079 152.832 C 230.417 159.110,231.852 173.438,231.142 173.438 C 230.941 173.438,227.674 171.466,223.884 169.055 C 220.093 166.645,214.885 163.580,212.310 162.244 L 207.628 159.816 210.161 158.681 C 212.111 157.808,222.107 153.965,226.953 152.225 C 228.206 151.775,228.895 151.972,229.079 152.832 M205.644 167.429 C 212.081 170.920,229.749 182.032,231.445 183.657 L 232.617 184.780 232.617 199.947 C 232.617 212.849,232.530 215.221,232.031 215.832 C 230.783 217.361,211.509 229.405,203.200 233.848 L 199.658 235.742 196.020 233.823 C 187.181 229.158,169.002 217.651,167.831 215.980 C 166.985 214.771,166.840 184.966,167.676 183.903 C 169.442 181.656,197.653 164.464,199.589 164.456 C 199.900 164.454,202.625 165.792,205.644 167.429 M193.972 182.423 C 176.750 187.922,177.279 213.214,194.711 217.753 C 205.329 220.518,216.266 213.405,217.960 202.633 C 220.012 189.588,206.688 178.362,193.972 182.423 M159.062 199.694 C 158.997 204.898,158.866 209.233,158.770 209.329 C 158.477 209.622,146.533 200.514,146.499 199.970 C 146.482 199.700,158.565 190.235,158.928 190.234 C 159.066 190.234,159.127 194.491,159.062 199.694 M245.383 193.848 C 250.685 198.096,252.734 199.878,252.734 200.238 C 252.734 200.548,253.061 200.277,246.246 205.621 L 240.820 209.874 240.729 207.965 C 240.508 203.313,240.451 190.234,240.652 190.234 C 240.774 190.234,242.903 191.860,245.383 193.848 M146.485 210.394 C 149.171 212.519,153.245 215.622,155.540 217.290 L 159.711 220.323 159.928 222.368 C 160.047 223.494,160.504 228.018,160.943 232.422 C 161.382 236.826,162.101 242.869,162.540 245.851 C 163.471 252.183,163.861 251.514,158.203 253.299 C 142.598 258.223,122.393 259.979,115.652 256.997 C 109.055 254.079,108.435 245.633,114.091 235.742 C 119.545 226.206,139.174 204.434,140.941 205.960 C 141.304 206.273,143.799 208.269,146.485 210.394 M267.434 213.965 C 293.460 239.664,297.246 257.466,276.979 258.839 C 269.371 259.355,244.988 255.221,237.716 252.182 C 236.073 251.496,236.090 251.685,237.081 245.066 C 237.926 239.422,239.276 228.311,239.672 223.744 C 239.987 220.103,239.621 220.561,246.094 215.726 C 248.994 213.560,252.949 210.468,254.883 208.855 C 256.816 207.241,258.585 205.907,258.812 205.890 C 259.039 205.873,262.919 209.507,267.434 213.965 M172.742 229.220 C 177.268 232.253,190.052 239.844,190.635 239.844 C 191.599 239.844,190.831 240.506,188.964 241.284 C 187.837 241.755,183.420 243.657,179.149 245.512 C 174.878 247.367,171.237 248.737,171.057 248.557 C 170.670 248.170,169.413 240.542,168.559 233.398 C 168.225 230.605,167.868 227.818,167.766 227.205 C 167.528 225.770,167.694 225.837,172.742 229.220 M230.873 235.029 C 229.010 249.215,229.083 249.058,225.098 247.471 C 218.876 244.993,208.204 240.423,208.209 240.239 C 208.212 240.129,210.629 238.675,213.580 237.007 C 216.531 235.340,221.758 232.215,225.195 230.064 L 231.445 226.152 231.565 227.500 C 231.630 228.240,231.319 231.629,230.873 235.029 M208.789 249.010 C 212.441 250.671,217.803 252.982,220.703 254.147 C 223.604 255.312,226.232 256.425,226.543 256.622 C 227.854 257.448,222.964 273.526,218.701 282.404 C 209.179 302.235,199.895 307.253,190.558 297.614 C 183.467 290.295,178.144 279.124,173.694 262.226 C 172.089 256.133,171.513 257.011,179.102 253.980 C 185.687 251.349,192.529 248.400,196.829 246.338 C 199.501 245.057,199.803 244.993,200.931 245.473 C 201.601 245.758,205.137 247.349,208.789 249.010 " stroke="none" fill="#fafafb" fill-rule="evenodd"></path><path id="path2" d="M240.742 196.094 C 240.742 197.275,240.815 197.759,240.905 197.168 C 240.994 196.577,240.994 195.610,240.905 195.020 C 240.815 194.429,240.742 194.912,240.742 196.094 M267.188 202.930 C 267.916 203.682,268.601 204.297,268.708 204.297 C 268.815 204.297,268.307 203.682,267.578 202.930 C 266.849 202.178,266.165 201.563,266.058 201.563 C 265.950 201.563,266.459 202.178,267.188 202.930 M240.737 207.617 C 240.740 208.691,240.816 209.084,240.905 208.491 C 240.995 207.897,240.993 207.018,240.900 206.538 C 240.807 206.057,240.734 206.543,240.737 207.617 M268.750 215.357 C 268.750 215.424,269.321 215.995,270.020 216.626 L 271.289 217.773 270.142 216.504 C 269.072 215.321,268.750 215.055,268.750 215.357 M159.417 223.079 C 159.441 224.458,159.598 226.641,159.768 227.930 C 159.974 229.503,160.008 228.732,159.870 225.586 C 159.652 220.588,159.347 218.901,159.417 223.079 M160.263 232.422 C 160.263 233.389,160.339 233.784,160.432 233.301 C 160.525 232.817,160.525 232.026,160.432 231.543 C 160.339 231.060,160.263 231.455,160.263 232.422 M160.653 235.938 C 160.653 236.904,160.729 237.300,160.823 236.816 C 160.916 236.333,160.916 235.542,160.823 235.059 C 160.729 234.575,160.653 234.971,160.653 235.938 M161.028 239.063 C 161.028 239.814,161.109 240.122,161.207 239.746 C 161.305 239.370,161.305 238.755,161.207 238.379 C 161.109 238.003,161.028 238.311,161.028 239.063 M161.809 244.531 C 161.809 245.283,161.890 245.591,161.988 245.215 C 162.086 244.839,162.086 244.224,161.988 243.848 C 161.890 243.472,161.809 243.779,161.809 244.531 M297.755 248.242 C 297.759 249.102,297.839 249.407,297.933 248.921 C 298.026 248.435,298.022 247.732,297.925 247.359 C 297.827 246.985,297.750 247.383,297.755 248.242 M274.707 258.863 C 275.083 258.961,275.698 258.961,276.074 258.863 C 276.450 258.765,276.143 258.684,275.391 258.684 C 274.639 258.684,274.331 258.765,274.707 258.863 M215.234 302.539 C 214.286 303.506,213.597 304.297,213.705 304.297 C 213.812 304.297,214.676 303.506,215.625 302.539 C 216.574 301.572,217.262 300.781,217.155 300.781 C 217.047 300.781,216.183 301.572,215.234 302.539 " stroke="none" fill="#576280" fill-rule="evenodd"></path><path id="path3" d="M266.982 187.207 L 264.258 190.039 267.090 187.315 C 268.647 185.817,269.922 184.543,269.922 184.483 C 269.922 184.197,269.512 184.577,266.982 187.207 M232.550 189.648 C 232.552 191.152,232.622 191.720,232.707 190.909 C 232.792 190.099,232.790 188.868,232.704 188.175 C 232.618 187.481,232.548 188.145,232.550 189.648 M180.950 200.000 C 180.950 200.752,181.030 201.060,181.129 200.684 C 181.227 200.308,181.227 199.692,181.129 199.316 C 181.030 198.940,180.950 199.248,180.950 200.000 M270.703 206.445 C 271.432 207.197,272.116 207.813,272.224 207.813 C 272.331 207.813,271.823 207.197,271.094 206.445 C 270.365 205.693,269.681 205.078,269.573 205.078 C 269.466 205.078,269.974 205.693,270.703 206.445 M232.558 210.547 C 232.558 212.373,232.626 213.120,232.708 212.207 C 232.790 211.294,232.790 209.800,232.708 208.887 C 232.626 207.974,232.558 208.721,232.558 210.547 M271.484 218.091 C 271.484 218.158,272.056 218.729,272.754 219.361 L 274.023 220.508 272.876 219.238 C 271.807 218.055,271.484 217.789,271.484 218.091 M159.864 223.633 C 159.868 224.492,159.948 224.798,160.042 224.312 C 160.135 223.826,160.132 223.123,160.034 222.749 C 159.936 222.376,159.860 222.773,159.864 223.633 M160.247 228.125 C 160.247 228.877,160.327 229.185,160.426 228.809 C 160.524 228.433,160.524 227.817,160.426 227.441 C 160.327 227.065,160.247 227.373,160.247 228.125 M160.638 232.031 C 160.638 232.783,160.718 233.091,160.816 232.715 C 160.914 232.339,160.914 231.724,160.816 231.348 C 160.718 230.972,160.638 231.279,160.638 232.031 M230.559 235.547 C 230.559 236.299,230.640 236.606,230.738 236.230 C 230.836 235.854,230.836 235.239,230.738 234.863 C 230.640 234.487,230.559 234.795,230.559 235.547 M190.820 298.047 C 191.659 298.906,192.434 299.609,192.541 299.609 C 192.649 299.609,192.050 298.906,191.211 298.047 C 190.372 297.188,189.597 296.484,189.490 296.484 C 189.382 296.484,189.981 297.188,190.820 298.047 " stroke="none" fill="#828da5" fill-rule="evenodd"></path><path id="path4" d="M232.570 196.484 C 232.570 198.955,232.633 199.966,232.711 198.730 C 232.788 197.495,232.788 195.474,232.711 194.238 C 232.633 193.003,232.570 194.014,232.570 196.484 M240.770 201.953 C 240.770 204.209,240.834 205.132,240.913 204.004 C 240.992 202.876,240.992 201.030,240.913 199.902 C 240.834 198.774,240.770 199.697,240.770 201.953 M232.556 204.492 C 232.557 206.211,232.626 206.865,232.708 205.947 C 232.791 205.028,232.790 203.622,232.706 202.822 C 232.622 202.022,232.554 202.773,232.556 204.492 " stroke="none" fill="#737ea0" fill-rule="evenodd"></path></g></svg>